ffmpeg started on 2023-02-27 at 21:23:18
Report written to "D:/java/GitHub/pornMagnetSpringBoot/jiuse911Modeul/Logs/2023-02-27_21-20-52-545_ffreport.log"
Command line:
"D:\\java\\GitHub\\pornMagnetSpringBoot\\ffmpeg.exe" -loglevel warning -i "concat:000.ts|001.ts|002.ts|003.ts|004.ts|005.ts|006.ts|007.ts|008.ts|009.ts|010.ts|011.ts|012.ts|013.ts|014.ts|015.ts|016.ts|017.ts|018.ts|019.ts|020.ts|021.ts|022.ts|023.ts|024.ts|025.ts|026.ts|027.ts|028.ts|029.ts|030.ts|031.ts|032.ts|033.ts|034.ts|035.ts|036.ts|037.ts|038.ts|039.ts|040.ts|041.ts|042.ts|043.ts|044.ts|045.ts|046.ts|047.ts|048.ts|049.ts|050.ts|051.ts|052.ts|053.ts|054.ts|055.ts|056.ts|057.ts|058.ts|059.ts|060.ts|061.ts|062.ts|063.ts|064.ts|065.ts|066.ts|067.ts|068.ts|069.ts|070.ts|071.ts|072.ts|073.ts|074.ts|075.ts|076.ts|077.ts|078.ts|079.ts|080.ts|081.ts|082.ts|083.ts|084.ts|085.ts|086.ts|087.ts|088.ts|089.ts|090.ts|091.ts|092.ts|093.ts|094.ts|095.ts|096.ts|097.ts|098.ts|099.ts|100.ts|101.ts|102.ts|" -map "0:v?" -map "0:a?" -map "0:s?" -metadata "date=2023-02-27T21:23:18.3193063+08:00" -metadata "encoding_tool=" -metadata "title=" -metadata "copyright=" -metadata "comment=" -metadata:s:a:0 "handler_name=" -metadata:s:a:0 "handler=" -c copy -y -bsf:a aac_adtstoasc "D:\\java\\GitHub\\pornMagnetSpringBoot\\Downloads\\\xc7\xe9\xc8\xa4\xb8\xdf\xb8\xfa\xca\xec\xc5\xae\xb1\xbb\xdc\xb3\xc5\xe7\xa3\xac\xc0\xcb\xbd\xd0\xce\xd2\xb2\xbb\xd0\xd0\xa3\xac\xce\xd2\xd2\xaa\xc9\xe4\xc1\xcb.mp4"
ffmpeg version N-94813-g85386c36e3-ffmpeg-for-N_m3u8DL-CLI Copyright (c) 2000-2019 the FFmpeg developers
  built with gcc 8.2.0 (GCC)
  libavutil      56. 35.100 / 56. 35.100
  libavcodec     58. 56.101 / 58. 56.101
  libavformat    58. 32.104 / 58. 32.104
  libavfilter     7. 58.102 /  7. 58.102
  libavresample   4.  0.  0 /  4.  0.  0
  libswresample   3.  6.100 /  3.  6.100
Input #0, mpegts, from 'concat:000.ts|001.ts|002.ts|003.ts|004.ts|005.ts|006.ts|007.ts|008.ts|009.ts|010.ts|011.ts|012.ts|013.ts|014.ts|015.ts|016.ts|017.ts|018.ts|019.ts|020.ts|021.ts|022.ts|023.ts|024.ts|025.ts|026.ts|027.ts|028.ts|029.ts|030.ts|031.ts|032.ts|033.ts|034.ts|035.ts|036.ts|037.ts|038.ts|039.ts|040.ts|041.ts|042.ts|043.ts|044.ts|045.ts|046.ts|047.ts|048.ts|049.ts|050.ts|051.ts|052.ts|053.ts|054.ts|055.ts|056.ts|057.ts|058.ts|059.ts|060.ts|061.ts|062.ts|063.ts|064.ts|065.ts|066.ts|067.ts|068.ts|069.ts|070.ts|071.ts|072.ts|073.ts|074.ts|075.ts|076.ts|077.ts|078.ts|079.ts|080.ts|081.ts|082.ts|083.ts|084.ts|085.ts|086.ts|087.ts|088.ts|089.ts|090.ts|091.ts|092.ts|093.ts|094.ts|095.ts|096.ts|097.ts|098.ts|099.ts|100.ts|101.ts|102.ts|':
  Duration: 00:17:08.25, start: 1.400000, bitrate: 1250 kb/s
  Program 1 
    Metadata:
      service_name    : Service01
      service_provider: FFmpeg
    Stream #0:0[0x100]: Video: h264 ([27][0][0][0] / 0x001B), yuv420p(progressive), 480x320, 25 fps, 25 tbr, 90k tbn, 50 tbc
    Stream #0:1[0x101](und): Audio: aac ([15][0][0][0] / 0x000F), 22050 Hz, stereo, fltp, 130 kb/s
Output #0, mp4, to 'D:\java\GitHub\pornMagnetSpringBoot\Downloads\情趣高跟熟女被艹喷，浪叫我不行，我要射了.mp4':
  Metadata:
    date            : 2023-02-27T21:23:18.3193063+08:00
    encoder         : Lavf58.32.104
    Stream #0:0: Video: h264 (avc1 / 0x31637661), yuv420p(progressive), 480x320, q=2-31, 25 fps, 25 tbr, 90k tbn, 90k tbc
    Stream #0:1(und): Audio: aac (mp4a / 0x6134706D), 22050 Hz, stereo, fltp, 130 kb/s
Stream mapping:
  Stream #0:0 -> #0:0 (copy)
  Stream #0:1 -> #0:1 (copy)
Press [q] to stop, [?] for help
frame=22972 fps=0.0 q=-1.0 size=  134144kB time=00:15:18.88 bitrate=1195.9kbits/s speed=1.84e+03x    frame=25705 fps=0.0 q=-1.0 Lsize=  150169kB time=00:17:08.20 bitrate=1196.4kbits/s speed=1.88e+03x    
video:133502kB audio:16222kB subtitle:0kB other streams:0kB global headers:0kB muxing overhead: 0.297414%
